# xmcd
#
# Track frame offsets:
#	150
#	16350
#	45410
#
# Disc length: 859 seconds
#
# Revision: 2
# Processed by: cddbd v1.5.2PL0 Copyright (c) Steve Scherf et al.
# Submitted via: audiograbber 1.83.01
#
DISCID=18035903
DTITLE=Vandross, Luther - Come back
DYEAR=1988
DGENRE=Soul
TTITLE0=Come back (7" remix)
TTITLE1=Come back (Keith Cohen Extended remix)
TTITLE2=Come back (LP version)
EXTD=
EXTT0=
EXTT1=
EXTT2=
PLAYORDER=
